<svg width="264" height="107" viewBox="0 0 264 107" fill="none" xmlns="http://www.w3.org/2000/svg">
<path d="M12.934 93.5093C12.3207 93.741 11.6493 93.7699 11.0184 93.5918C10.3875 93.4136 9.83034 93.0379 9.42878 92.5197L6.85812 89.2201C6.53209 88.8212 6.10959 88.5123 5.63064 88.3225C5.15169 88.1328 4.63217 88.0686 4.12143 88.136V91.3773C4.12143 92.5461 4.92189 92.7462 5.99061 92.8803C6.10715 92.8968 6.02361 93.4477 5.88947 93.4477H0.831704C0.697564 93.4477 0.597531 92.8979 0.730571 92.8803C1.58269 92.7627 2.11596 92.4284 2.11596 91.3773V83.9348C2.11596 82.8353 1.53211 82.5153 0.730571 82.2987C0.597531 82.2657 0.681071 81.7148 0.831704 81.7313C1.46864 81.8034 2.10936 81.8368 2.75034 81.8314C3.98508 81.8314 5.13629 81.7313 5.93893 81.7313C8.459 81.7313 10.1446 82.7659 10.1446 84.8187C10.1414 85.6051 9.82759 86.3583 9.27154 86.9144C8.7155 87.4704 7.96224 87.7842 7.17588 87.7874V87.8721C7.84328 87.8721 8.32816 88.1558 9.06263 89.0739L11.5486 92.1942C11.7002 92.4301 11.9039 92.6281 12.1441 92.7728C12.3843 92.9175 12.6546 93.0051 12.934 93.0288C13.067 93.0266 13.034 93.4763 12.934 93.5093ZM8.04446 85.263C8.07742 84.9083 8.03265 84.5508 7.91327 84.2152C7.79389 83.8796 7.60278 83.5741 7.35325 83.32C7.10371 83.0658 6.80174 82.8691 6.46842 82.7437C6.13509 82.6182 5.77845 82.5669 5.42327 82.5933C4.43371 82.5933 4.12257 82.9935 4.12257 83.9281V87.3652H4.60636C7.09234 87.3674 8.04446 86.9342 8.04446 85.2651V85.263Z" fill="white"/>
<path d="M15.6261 92.8734C16.5947 92.6227 17.3457 92.4721 17.3457 91.2363V83.8277C17.3457 82.759 16.6618 82.4754 15.9438 82.2885C15.8097 82.2555 15.8932 81.7046 16.0274 81.7211C17.2456 81.8541 19.3479 81.8211 20.366 81.8211C21.8844 81.8211 22.9862 81.7541 24.3551 81.7211C24.7553 81.7211 24.7553 81.9883 24.6717 82.372L24.2715 83.9575C24.2209 84.1917 23.8042 84.1917 23.7372 83.9575C23.4865 83.1406 22.9862 82.6722 20.9004 82.6722C19.7316 82.6722 19.3479 82.9723 19.3479 83.841V86.5611C19.3479 87.0009 19.5678 87.0779 19.8977 87.0779H20.2649C21.3875 87.2068 22.52 86.9417 23.4689 86.328C23.636 86.1763 24.0032 86.2104 23.8526 86.5479L22.9015 88.6513C22.7685 88.9515 22.5178 88.9185 22.3342 88.6678C22.0467 88.3867 21.7001 88.1734 21.3196 88.0434C20.9392 87.9135 20.5345 87.8702 20.1352 87.9168H19.901C19.5711 87.9168 19.3512 88.0004 19.3512 88.4336V91.2373C19.3512 92.1895 19.7515 92.5402 21.1368 92.5402C23.6569 92.5402 24.6552 91.3879 25.0587 90.7546C25.1753 90.5699 25.6261 90.6546 25.6261 90.9372C25.6261 91.7882 24.9081 93.4748 23.857 93.4748C22.9224 93.4242 22.0054 93.3737 20.6035 93.3737C19.0642 93.3737 17.2489 93.3242 15.7305 93.4748C15.5601 93.4902 15.493 92.9064 15.6261 92.8734Z" fill="white"/>
<path d="M32.2863 88.9694V91.3773C32.2863 92.5461 33.0868 92.7462 34.1555 92.8803C34.272 92.8968 34.1885 93.4477 34.0554 93.4477H28.9977C28.8646 93.4477 28.7646 92.8979 28.8976 92.8803C29.7497 92.7627 30.283 92.4284 30.283 91.3773V83.9348C30.283 82.8353 29.6991 82.5153 28.8976 82.2987C28.7646 82.2657 28.8481 81.7148 28.9977 81.7313C29.635 81.8034 30.2761 81.8368 30.9174 81.8314C32.1522 81.8314 33.1868 81.7313 34.0378 81.7313C36.6249 81.7313 38.7657 82.6824 38.7657 85.3025C38.7613 88.269 35.9741 89.5202 32.2863 88.9694ZM32.2863 83.9303V88.1525C35.123 88.5527 36.6084 87.8688 36.6084 85.6829C36.6448 85.277 36.5933 84.8679 36.4574 84.4836C36.3215 84.0993 36.1045 83.7488 35.8211 83.4559C35.5376 83.1629 35.1944 82.9345 34.8148 82.7861C34.4352 82.6376 34.0281 82.5726 33.6211 82.5955C32.57 82.5955 32.2863 82.9617 32.2863 83.9303Z" fill="white"/>
<path d="M43.4724 89.0667V83.8264C43.4992 83.6357 43.4839 83.4415 43.4276 83.2574C43.3713 83.0733 43.2755 82.9037 43.1467 82.7606C43.0179 82.6175 42.8594 82.5043 42.6822 82.429C42.5051 82.3536 42.3135 82.3179 42.1211 82.3245C41.987 82.3069 42.0871 81.756 42.2201 81.756H46.7765C46.9095 81.756 47.0107 82.3058 46.8765 82.3245C46.6855 82.3204 46.4959 82.3578 46.3207 82.4343C46.1456 82.5107 45.9891 82.6243 45.8622 82.7671C45.7352 82.9099 45.6409 83.0786 45.5856 83.2615C45.5302 83.4444 45.5153 83.6371 45.5417 83.8264V89.1502C45.5417 91.4856 46.893 92.5707 48.6621 92.5707C49.1125 92.6005 49.5638 92.5314 49.9845 92.3681C50.4052 92.2048 50.785 91.9513 51.0973 91.6254C51.4096 91.2996 51.6467 90.9094 51.7921 90.4822C51.9374 90.0549 51.9875 89.6011 51.9387 89.1524V83.8286C51.9387 82.7434 51.3207 82.4421 50.5093 82.3267C50.3928 82.3091 50.4763 81.7582 50.6094 81.7582H54.3576C54.4752 81.7582 54.5775 82.308 54.4411 82.3267C54.2501 82.3226 54.0605 82.36 53.8853 82.4365C53.7102 82.5129 53.5537 82.6264 53.4268 82.7693C53.2999 82.9121 53.2054 83.0808 53.1501 83.2637C53.0948 83.4466 53.0799 83.6393 53.1063 83.8286V89.0512C53.1578 89.6743 53.0733 90.3012 52.8586 90.8884C52.6438 91.4756 52.3041 92.0091 51.8628 92.452C51.4214 92.8948 50.8891 93.2365 50.3027 93.4534C49.7163 93.6702 49.0897 93.7569 48.4664 93.7076C46.1112 93.7076 43.4724 92.4553 43.4724 89.0667ZM48.3785 77.601C48.6797 77.1612 50.0816 78.452 49.6802 78.7521L47.4945 80.4014C47.2746 80.5674 46.6929 80.0342 46.86 79.8011L48.3785 77.601Z" fill="white"/>
<path d="M67.8106 90.0723C67.8106 92.1405 65.9238 93.4808 63.1377 93.4808C62.3361 93.4808 61.4016 93.3796 60.1691 93.3796C59.2945 93.3652 58.4198 93.3991 57.5489 93.4808C57.3994 93.4973 57.3147 92.9134 57.4489 92.8805C58.4164 92.6298 59.1674 92.4791 59.1674 91.2433V83.8348C59.1674 82.7661 58.4835 82.4824 57.7655 82.2955C57.6324 82.2625 57.716 81.7117 57.849 81.7281C58.5199 81.7996 59.1943 81.833 59.8689 81.8282C61.2037 81.8282 62.1877 81.7281 62.9222 81.7281C65.075 81.7281 66.8442 82.6297 66.8606 84.4659C66.8708 85.0682 66.664 85.6539 66.278 86.1164C65.8921 86.5788 65.3527 86.8871 64.7583 86.9849V87.085C65.1567 87.0737 65.5534 87.1428 65.9245 87.2882C66.2956 87.4335 66.6337 87.6521 66.9185 87.9309C67.2033 88.2096 67.4291 88.5429 67.5824 88.9108C67.7357 89.2788 67.8132 89.6737 67.8106 90.0723ZM61.1685 83.8304V86.7991H62.887C63.1435 86.8338 63.4046 86.8091 63.6501 86.7269C63.8956 86.6447 64.1188 86.5071 64.3027 86.3249C64.4865 86.1426 64.626 85.9205 64.7104 85.6758C64.7947 85.4311 64.8217 85.1702 64.7891 84.9134C64.8085 84.5937 64.7578 84.2737 64.6406 83.9756C64.5234 83.6776 64.3425 83.4087 64.1105 83.1878C63.8786 82.967 63.6012 82.7995 63.2977 82.697C62.9943 82.5945 62.6721 82.5596 62.3538 82.5946C61.4687 82.5957 61.174 82.8958 61.174 83.8304H61.1685ZM65.6578 90.4384C65.6863 90.0658 65.6344 89.6914 65.5057 89.3405C65.377 88.9897 65.1744 88.6706 64.9117 88.4048C64.6491 88.139 64.3323 87.9326 63.983 87.7998C63.6337 87.6669 63.26 87.6106 62.887 87.6347H61.174V91.2389C61.174 92.157 61.6413 92.6089 63.0926 92.6089C64.5561 92.6089 65.6578 92.1735 65.6578 90.4384Z" fill="white"/>
<path d="M71.0032 92.8753C71.9718 92.6246 72.7228 92.474 72.7228 91.2382V83.8296C72.7228 82.6609 72.0389 82.4267 71.3209 82.3278C71.1879 82.3102 71.2879 81.7593 71.4045 81.7593H76.0103C76.1269 81.7593 76.2104 82.3091 76.0939 82.3278C75.9 82.3186 75.7066 82.3523 75.5272 82.4265C75.3479 82.5007 75.1871 82.6135 75.0564 82.7569C74.9257 82.9004 74.8282 83.0708 74.7709 83.2563C74.7136 83.4417 74.6979 83.6375 74.725 83.8296V91.2382C74.725 92.1903 75.1263 92.5411 76.5117 92.5411C79.0318 92.5411 80.0301 91.3888 80.4325 90.7555C80.5502 90.5707 80.9999 90.6554 80.9999 90.938C80.9999 91.789 80.283 93.4756 79.2308 93.4756C78.2962 93.4251 77.3792 93.3745 75.9773 93.3745C74.438 93.3745 72.6228 93.325 71.1044 93.4756C70.9372 93.4921 70.8701 92.9083 71.0032 92.8753Z" fill="white"/>
<path d="M83.9405 92.8753C84.7915 92.7576 85.3259 92.4234 85.3259 91.3722V83.8296C85.3259 82.7774 84.7915 82.4432 83.9405 82.3278C83.8063 82.3102 83.9064 81.7593 84.0395 81.7593H88.6134C88.7464 81.7593 88.8465 82.3091 88.7124 82.3278C87.9955 82.4267 87.328 82.6576 87.328 83.8296V91.3722C87.328 92.541 87.9955 92.7741 88.7124 92.8753C88.8465 92.8918 88.7464 93.4427 88.6134 93.4427H84.0427C83.9064 93.4427 83.8063 92.8918 83.9405 92.8753Z" fill="white"/>
<path d="M92.2391 87.8164C92.1991 86.9651 92.3392 86.1149 92.6504 85.3215C92.9615 84.5281 93.4367 83.8093 94.0448 83.2122C94.6529 82.6152 95.3802 82.1532 96.1792 81.8566C96.9781 81.56 97.8307 81.4353 98.6811 81.4909C100.616 81.4909 102.285 82.0923 102.09 82.6762L101.87 83.3271C101.268 85.1127 100.617 82.8268 97.6476 82.8268C95.2606 82.8268 94.0918 84.3782 94.0918 86.785C94.0551 87.4784 94.1616 88.1718 94.4046 88.8222C94.6476 89.4726 95.022 90.066 95.5043 90.5654C95.9866 91.0648 96.5665 91.4596 97.208 91.7251C97.8495 91.9906 98.5388 92.1213 99.233 92.1088C100.173 92.0335 101.087 91.7667 101.92 91.3249C102.053 91.2402 102.404 91.625 102.304 91.7746C101.379 92.7685 100.165 93.4459 98.8329 93.7108C96.0291 93.7076 92.2391 92.0726 92.2391 87.8164Z" fill="white"/>
<path d="M117.544 93.4417H113.138C112.918 93.4417 112.904 92.9073 113.089 92.8743C113.706 92.7566 114.373 92.5444 113.756 91.1041L113.573 90.6874C113.405 90.2861 113.122 90.2476 112.621 90.2476H109.213C108.713 90.2476 108.429 90.2806 108.262 90.6874L108.095 91.1041C107.511 92.54 108.145 92.7533 108.946 92.8743C109.166 92.9073 109.113 93.4417 108.896 93.4417H105.291C105.091 93.4417 105.04 92.9073 105.24 92.8743C105.925 92.7566 106.326 92.5236 106.944 91.1041L109.764 84.6291C110.238 83.7693 110.528 82.82 110.615 81.8418C110.991 81.6507 111.412 81.5645 111.833 81.5923L115.901 91.0876C116.502 92.507 116.902 92.7731 117.569 92.8743C117.811 92.9073 117.744 93.4417 117.544 93.4417ZM112.887 89.0513L110.935 84.3784L108.966 89.0513C108.866 89.2855 109.116 89.3185 109.35 89.3185H112.504C112.741 89.3185 112.988 89.2866 112.887 89.0513Z" fill="white"/>
<path d="M125.628 92.8734C126.596 92.6227 127.347 92.4721 127.347 91.2363V83.8277C127.347 82.759 126.663 82.4754 125.945 82.2885C125.812 82.2555 125.896 81.7046 126.029 81.7211C126.722 81.7966 127.42 81.83 128.118 81.8211C129.418 81.8211 130.587 81.7211 131.438 81.7211C135.477 81.7211 137.663 84.1246 137.663 87.3451C137.692 88.1673 137.55 88.9866 137.245 89.7508C136.94 90.515 136.48 91.2074 135.893 91.7837C135.305 92.36 134.605 92.8076 133.835 93.098C133.065 93.3884 132.243 93.5153 131.422 93.4704C130.62 93.4704 129.586 93.3693 128.351 93.3693C127.476 93.3553 126.602 93.389 125.731 93.4704C125.561 93.4902 125.495 92.9064 125.628 92.8734ZM135.658 88.2995C135.658 85.1109 133.922 82.6095 130.919 82.6095C129.734 82.6095 129.35 82.9756 129.35 83.8277V91.2363C129.35 92.1379 129.967 92.5886 131.587 92.5886C134.307 92.5842 135.658 91.1197 135.658 88.2962V88.2995Z" fill="white"/>
<path d="M141.287 87.666C141.256 86.8567 141.39 86.0495 141.682 85.2941C141.974 84.5386 142.418 83.8507 142.985 83.2726C143.552 82.6944 144.231 82.238 144.981 81.9315C145.731 81.625 146.535 81.4748 147.345 81.4901C148.143 81.4644 148.938 81.6027 149.68 81.8964C150.423 82.1901 151.098 82.6331 151.662 83.1978C152.227 83.7625 152.67 84.437 152.963 85.1796C153.257 85.9223 153.395 86.7172 153.369 87.5154C153.403 88.3262 153.271 89.1354 152.98 89.8931C152.689 90.6509 152.246 91.341 151.679 91.921C151.111 92.5011 150.431 92.9588 149.679 93.2659C148.928 93.573 148.122 93.723 147.311 93.7067C146.512 93.7291 145.717 93.5881 144.975 93.2922C144.233 92.9963 143.559 92.5519 142.995 91.9862C142.431 91.4205 141.989 90.7455 141.695 90.0026C141.401 89.2597 141.262 88.4646 141.287 87.666ZM151.383 88.45C151.383 85.0789 149.097 82.6225 146.694 82.6225C145.225 82.6225 143.285 83.5901 143.285 86.7281C143.285 90.1366 145.571 92.5687 147.957 92.5687C149.431 92.572 151.383 91.6045 151.383 88.45Z" fill="white"/>
<path d="M171.534 93.4433H167.178C167.061 93.4433 166.978 92.8935 167.078 92.8759C167.259 92.8685 167.436 92.8217 167.597 92.7387C167.758 92.6557 167.899 92.5386 168.011 92.3956C168.122 92.2525 168.201 92.0869 168.241 91.9102C168.282 91.7336 168.284 91.5502 168.246 91.3729L167.93 85.7654L165.225 91.274C164.946 91.8231 164.723 92.3984 164.558 92.9914C164.525 93.1926 164.174 93.2927 163.907 93.2927C163.8 93.3011 163.694 93.2768 163.601 93.223C163.509 93.1691 163.435 93.0883 163.39 92.9914L159.535 85.683L159.284 91.3729C159.234 92.5417 159.919 92.8078 160.453 92.8759C160.586 92.8924 160.486 93.4433 160.368 93.4433H156.914C156.781 93.4433 156.681 92.8935 156.814 92.8759C157.532 92.7913 158.133 92.5461 158.199 91.3729L158.734 81.794C158.75 81.5093 159.384 81.4928 159.552 81.794L164.389 90.8386L168.88 81.794C169.029 81.4928 169.697 81.5093 169.713 81.794L170.248 91.3729C170.315 92.5417 170.915 92.7913 171.616 92.8759C171.751 92.8924 171.65 93.4433 171.534 93.4433Z" fill="white"/>
<path d="M174.961 92.8753C175.812 92.7576 176.347 92.4234 176.347 91.3722V83.8296C176.347 82.7774 175.812 82.4432 174.961 82.3278C174.828 82.3102 174.928 81.7593 175.061 81.7593H179.634C179.768 81.7593 179.867 82.3091 179.734 82.3278C179.017 82.4267 178.35 82.6576 178.35 83.8296V91.3722C178.35 92.541 179.017 92.7741 179.734 92.8753C179.867 92.8918 179.768 93.4427 179.634 93.4427H175.061C174.928 93.4427 174.828 92.8918 174.961 92.8753Z" fill="white"/>
<path d="M193.456 93.2925L185.511 84.9802V91.3232C185.511 92.4568 186.179 92.6426 187.13 92.8757C187.263 92.9087 187.197 93.4431 187.03 93.4431H183.072C182.938 93.4431 182.838 92.9252 182.988 92.8757C183.689 92.6415 184.356 92.5085 184.356 91.3232V84.8471C184.44 84.0194 184.221 83.1893 183.739 82.5107C183.589 82.3106 183.439 82.1808 183.439 82.127C183.435 82.0346 183.467 81.9443 183.529 81.8755C183.59 81.8067 183.677 81.7651 183.769 81.7597H185.004C185.078 81.75 185.153 81.7586 185.223 81.7848C185.293 81.8111 185.356 81.8543 185.405 81.9104L193.182 90.138V83.8631C193.182 82.6778 192.431 82.5437 191.562 82.3238C191.429 82.2897 191.496 81.7554 191.664 81.7554H195.622C195.755 81.7554 195.842 82.2897 195.705 82.3238C194.971 82.5437 194.336 82.6735 194.336 83.8631V90.3502C194.302 91.3334 194.369 92.3175 194.537 93.287C194.604 93.5377 194.336 93.6037 194.069 93.6037C193.95 93.604 193.832 93.5759 193.725 93.5219C193.618 93.4678 193.526 93.3891 193.456 93.2925Z" fill="white"/>
<path d="M199.052 92.8753C199.904 92.7576 200.437 92.4234 200.437 91.3722V83.8296C200.437 82.7774 199.904 82.4432 199.052 82.3278C198.919 82.3102 199.019 81.7593 199.153 81.7593H203.725C203.859 81.7593 203.959 82.3091 203.826 82.3278C203.108 82.4267 202.44 82.6576 202.44 83.8296V91.3722C202.44 92.541 203.108 92.7741 203.826 92.8753C203.959 92.8918 203.859 93.4427 203.725 93.4427H199.153C199.018 93.4427 198.918 92.8918 199.052 92.8753Z" fill="white"/>
<path d="M207.349 87.8168C207.308 86.9653 207.447 86.1148 207.758 85.321C208.069 84.5272 208.544 83.808 209.152 83.2107C209.76 82.6134 210.488 82.1514 211.287 81.8551C212.086 81.5588 212.939 81.4348 213.79 81.4913C215.726 81.4913 217.395 82.0928 217.198 82.6766L216.978 83.3275C216.377 85.1131 215.726 82.8272 212.756 82.8272C210.369 82.8272 209.201 84.3786 209.201 86.7854C209.165 87.4786 209.271 88.1718 209.514 88.8221C209.757 89.4723 210.131 90.0655 210.613 90.5649C211.095 91.0643 211.675 91.4592 212.316 91.7248C212.958 91.9905 213.647 92.1214 214.341 92.1092C215.28 92.0342 216.195 91.7674 217.028 91.3253C217.162 91.2406 217.512 91.6254 217.411 91.775C216.487 92.7693 215.272 93.4468 213.94 93.7113C211.137 93.708 207.349 92.073 207.349 87.8168Z" fill="white"/>
<path d="M232.654 93.4417H228.247C228.027 93.4417 228.014 92.9073 228.198 92.8743C228.816 92.7566 229.483 92.5444 228.865 91.1041L228.681 90.6874C228.514 90.2861 228.231 90.2476 227.73 90.2476H224.322C223.821 90.2476 223.537 90.2806 223.371 90.6874L223.204 91.1041C222.619 92.54 223.253 92.7533 224.055 92.8743C224.275 92.9073 224.222 93.4417 224.004 93.4417H220.404C220.204 93.4417 220.154 92.9073 220.354 92.8743C221.038 92.7566 221.439 92.5236 222.057 91.1041L224.877 84.6291C225.351 83.7693 225.641 82.82 225.728 81.8418C226.104 81.6507 226.525 81.5645 226.946 81.5923L231.015 91.0876C231.616 92.507 232.016 92.7731 232.684 92.8743C232.917 92.9073 232.854 93.4417 232.654 93.4417ZM227.997 89.0513L226.045 84.3784L224.076 89.0513C223.976 89.2855 224.226 89.3185 224.459 89.3185H227.614C227.847 89.3185 228.098 89.2866 227.997 89.0513Z" fill="white"/>
<path d="M246.245 93.2925L238.301 84.9802V91.3232C238.301 92.4568 238.969 92.6426 239.92 92.8757C240.054 92.9087 239.987 93.4431 239.82 93.4431H235.861C235.728 93.4431 235.628 92.9252 235.778 92.8757C236.478 92.6415 237.147 92.5085 237.147 91.3232V84.8471C237.23 84.0192 237.011 83.189 236.529 82.5107C236.379 82.3106 236.229 82.1808 236.229 82.127C236.224 82.0346 236.256 81.9443 236.318 81.8755C236.38 81.8067 236.466 81.7651 236.558 81.7597H237.793C237.867 81.7499 237.942 81.7586 238.012 81.7848C238.082 81.8111 238.144 81.8543 238.193 81.9104L245.97 90.138V83.8631C245.97 82.6778 245.219 82.5437 244.352 82.3238C244.218 82.2897 244.285 81.7554 244.452 81.7554H248.41C248.544 81.7554 248.63 82.2897 248.494 82.3238C247.759 82.5437 247.126 82.6735 247.126 83.8631V90.3502C247.091 91.3334 247.158 92.3175 247.326 93.287C247.392 93.5377 247.126 93.6037 246.859 93.6037C246.739 93.6037 246.621 93.5755 246.515 93.5215C246.408 93.4674 246.316 93.389 246.245 93.2925Z" fill="white"/>
<path d="M263.472 93.4417H259.066C258.846 93.4417 258.832 92.9073 259.015 92.8743C259.633 92.7566 260.301 92.5444 259.683 91.1041L259.499 90.6874C259.332 90.2861 259.048 90.2476 258.548 90.2476H255.14C254.638 90.2476 254.355 90.2806 254.189 90.6874L254.022 91.1041C253.438 92.54 254.072 92.7533 254.873 92.8743C255.092 92.9073 255.04 93.4417 254.822 93.4417H251.218C251.018 93.4417 250.967 92.9073 251.167 92.8743C251.851 92.7566 252.252 92.5236 252.87 91.1041L255.691 84.6291C256.165 83.7693 256.455 82.82 256.542 81.8418C256.918 81.6507 257.339 81.5645 257.76 81.5923L261.828 91.0876C262.429 92.507 262.83 92.7731 263.497 92.8743C263.739 92.9073 263.672 93.4417 263.472 93.4417ZM258.815 89.0513L256.863 84.3784L254.893 89.0513C254.793 89.2855 255.044 89.3185 255.277 89.3185H258.432C258.665 89.3185 258.915 89.2866 258.815 89.0513Z" fill="white"/>
<path d="M0.810992 70.5094V70.4863C0.79392 69.9283 0.889049 69.3727 1.0907 68.8522C1.29235 68.3317 1.59642 67.8569 1.98492 67.4561C2.37343 67.0553 2.83843 66.7366 3.35239 66.5188C3.86636 66.301 4.41883 66.1886 4.97703 66.1883C6.11221 66.1429 7.22054 66.5407 8.06771 67.2977L7.46192 68.0091C6.77767 67.3707 5.86835 67.0295 4.93307 67.0602C4.50033 67.0715 4.0742 67.1694 3.67982 67.3478C3.28543 67.5263 2.93075 67.7818 2.63661 68.0994C2.34247 68.417 2.11481 68.7902 1.96707 69.1971C1.81933 69.604 1.7545 70.0364 1.77635 70.4687V70.4929C1.74218 70.9411 1.80252 71.3915 1.95338 71.8149C2.10425 72.2383 2.34231 72.6254 2.65218 72.951C2.96206 73.2767 3.33679 73.5336 3.75223 73.7053C4.16766 73.8769 4.61452 73.9595 5.06386 73.9475C5.93348 73.9443 6.77727 73.6514 7.46192 73.1152V71.0503H4.93307V70.207H8.36353V73.5187C7.44479 74.336 6.25834 74.7882 5.0287 74.7898C4.46394 74.8103 3.90108 74.7131 3.37588 74.5045C2.85068 74.2958 2.3746 73.9802 1.97794 73.5776C1.58129 73.1751 1.27274 72.6944 1.07184 72.1662C0.870942 71.638 0.782101 71.0738 0.810992 70.5094Z" fill="white"/>
<path d="M11.2471 70.5093V70.4862C11.2455 69.9297 11.3535 69.3783 11.565 68.8636C11.7765 68.3489 12.0873 67.8809 12.4797 67.4863C12.872 67.0917 13.3383 66.7782 13.8518 66.5637C14.3653 66.3493 14.916 66.2382 15.4724 66.2366C16.0289 66.235 16.5803 66.343 17.095 66.5545C17.6097 66.766 18.0778 67.0768 18.4724 67.4692C18.867 67.8615 19.1805 68.3278 19.3949 68.8413C19.6093 69.3548 19.7204 69.9055 19.722 70.462C19.7341 70.473 19.7341 70.473 19.722 70.4862C19.7251 71.61 19.2816 72.6891 18.4891 73.4859C17.6966 74.2828 16.62 74.7322 15.4961 74.7352C14.3723 74.7383 13.2932 74.2948 12.4964 73.5022C11.6995 72.7097 11.2501 71.6331 11.2471 70.5093ZM18.749 70.5093V70.4862C18.7667 70.0439 18.6952 69.6025 18.5388 69.1884C18.3823 68.7743 18.1442 68.396 17.8384 68.0759C17.5327 67.7558 17.1657 67.5005 16.7592 67.3252C16.3527 67.15 15.9151 67.0583 15.4724 67.0557C15.0324 67.0569 14.5971 67.1471 14.1928 67.3208C13.7884 67.4945 13.4234 67.7482 13.1196 68.0666C12.8158 68.385 12.5796 68.7614 12.425 69.1735C12.2704 69.5855 12.2007 70.0245 12.2201 70.4642V70.4884C12.2025 70.9306 12.2742 71.3718 12.4307 71.7857C12.5872 72.1997 12.8254 72.5779 13.1311 72.8979C13.4368 73.2179 13.8038 73.4731 14.2102 73.6483C14.6166 73.8235 15.0541 73.9151 15.4967 73.9177C15.9367 73.9165 16.372 73.8263 16.7764 73.6526C17.1807 73.4789 17.5457 73.2253 17.8495 72.9069C18.1533 72.5885 18.3896 72.212 18.5441 71.8C18.6987 71.3879 18.7684 70.9489 18.749 70.5093Z" fill="white"/>
<path d="M22.8382 66.3303H26.3752C27.1671 66.2845 27.9458 66.5482 28.5467 67.0659C28.72 67.2408 28.8566 67.4486 28.9483 67.6771C29.0401 67.9056 29.0852 68.1501 29.0811 68.3962V68.4193C29.089 68.8374 28.966 69.2475 28.7295 69.5923C28.4929 69.937 28.1546 70.1993 27.7617 70.3424C28.7513 70.6393 29.5418 71.2088 29.5418 72.3479V72.3721C29.5418 73.8015 28.3434 74.6393 26.527 74.6393H22.8359L22.8382 66.3303ZM26.2202 70.0334C27.3483 70.0334 28.1323 69.5233 28.1323 68.5491V68.5271C28.1323 67.7069 27.4792 67.1725 26.2917 67.1725H23.7628V70.0312L26.2202 70.0334ZM26.5501 73.7971C27.8079 73.7971 28.5918 73.2374 28.5918 72.3127V72.2885C28.5918 71.3869 27.8321 70.8592 26.383 70.8592H23.7606V73.7916L26.5501 73.7971Z" fill="white"/>
<path d="M32.6221 66.3296H33.5599V74.6386H32.6221V66.3296Z" fill="white"/>
<path d="M37.1244 66.3296H43.1299V67.185H38.0623V70.0206H42.5933V70.8749H38.0589V73.7831H43.186V74.6386H37.1211L37.1244 66.3296Z" fill="white"/>
<path d="M46.209 66.3299H49.7824C50.6484 66.2835 51.4976 66.582 52.1441 67.16C52.3536 67.3777 52.518 67.6345 52.628 67.9158C52.738 68.1971 52.7914 68.4974 52.7852 68.7994V68.8225C52.7835 69.4357 52.5502 70.0257 52.132 70.4742C51.7138 70.9227 51.1416 71.1967 50.53 71.2414L53.082 74.6367H51.9308L49.5207 71.4074H47.1469V74.6367H46.209V66.3299ZM49.6988 70.5674C50.9457 70.5674 51.8352 69.9264 51.8352 68.8577V68.8357C51.8352 67.8153 51.0523 67.1974 49.7109 67.1974H47.1469V70.5685L49.6988 70.5674Z" fill="white"/>
<path d="M55.9229 66.3293H56.8024L62.0372 72.9879V66.3293H62.9509V74.6383H62.2032L56.8376 67.8214V74.6383H55.9239L55.9229 66.3293Z" fill="white"/>
<path d="M66.0645 70.5093V70.4862C66.0629 69.9297 66.1709 69.3783 66.3824 68.8636C66.5939 68.3489 66.9047 67.8809 67.2971 67.4863C67.6894 67.0917 68.1556 66.7782 68.6692 66.5637C69.1827 66.3493 69.7334 66.2382 70.2898 66.2366C70.8463 66.235 71.3977 66.343 71.9124 66.5545C72.4271 66.766 72.8952 67.0768 73.2898 67.4692C73.6844 67.8615 73.9978 68.3278 74.2123 68.8413C74.4267 69.3548 74.5379 69.9055 74.5395 70.462C74.5516 70.473 74.5516 70.473 74.5395 70.4862C74.541 71.0426 74.4329 71.594 74.2213 72.1087C74.0098 72.6234 73.6989 73.0914 73.3065 73.4859C72.9141 73.8805 72.4478 74.1939 71.9343 74.4083C71.4207 74.6226 70.87 74.7337 70.3135 74.7352C69.757 74.7367 69.2057 74.6286 68.691 74.4171C68.1763 74.2055 67.7083 73.8946 67.3138 73.5022C66.9192 73.1098 66.6058 72.6435 66.3914 72.13C66.1771 71.6165 66.066 71.0657 66.0645 70.5093ZM73.5664 70.5093V70.4862C73.5841 70.044 73.5127 69.6027 73.3563 69.1887C73.1999 68.7747 72.9618 68.3964 72.6562 68.0763C72.3506 67.7562 71.9837 67.5009 71.5773 67.3256C71.171 67.1502 70.7335 67.0585 70.291 67.0557C69.8509 67.0569 69.4156 67.1471 69.0113 67.3208C68.6069 67.4945 68.2419 67.7482 67.9381 68.0666C67.6343 68.385 67.398 68.7614 67.2434 69.1735C67.0889 69.5855 67.0192 70.0245 67.0386 70.4642V70.4884C67.0211 70.9305 67.0926 71.3716 67.2491 71.7855C67.4055 72.1994 67.6436 72.5775 67.9492 72.8975C68.2548 73.2175 68.6216 73.4727 69.0279 73.648C69.4342 73.8233 69.8716 73.915 70.3141 73.9177C70.7541 73.9165 71.1894 73.8263 71.5937 73.6526C71.9981 73.4789 72.3631 73.2253 72.6669 72.9069C72.9707 72.5885 73.2069 72.212 73.3615 71.8C73.5161 71.3879 73.5858 70.9489 73.5664 70.5093Z" fill="white"/>
<path d="M82.3477 66.3306H85.2317C85.7973 66.2931 86.3645 66.3721 86.8983 66.5627C87.4321 66.7533 87.9211 67.0515 88.335 67.4388C88.7489 67.826 89.079 68.294 89.3047 68.8139C89.5305 69.3339 89.6471 69.8946 89.6473 70.4615V70.4856C89.6477 71.0536 89.5316 71.6157 89.3064 72.1372C89.0812 72.6586 88.7516 73.1284 88.3379 73.5176C87.9242 73.9068 87.4351 74.2071 86.9009 74.4001C86.3667 74.593 85.7986 74.6746 85.2317 74.6396H82.3477V66.3306ZM85.2317 73.7731C85.6767 73.8045 86.1234 73.7429 86.5433 73.5923C86.9632 73.4417 87.3472 73.2054 87.6708 72.8984C87.9945 72.5914 88.2508 72.2203 88.4233 71.8089C88.5959 71.3975 88.6809 70.9548 88.6731 70.5087V70.4856C88.6816 70.0383 88.5973 69.5941 88.4253 69.181C88.2534 68.768 87.9976 68.3952 87.6741 68.0861C87.3507 67.777 86.9666 67.5384 86.5462 67.3853C86.1258 67.2323 85.6782 67.1681 85.2317 67.197H83.2844V73.7731H85.2317Z" fill="white"/>
<path d="M92.7617 66.3293H98.7683V67.1848H93.6996V70.0204H98.234V70.8747H93.6996V73.7829H98.8277V74.6383H92.7617V66.3293Z" fill="white"/>
<path d="M106.537 66.3293H107.475V73.7719H112.152V74.6383H106.537V66.3293Z" fill="white"/>
<path d="M118.092 66.271H118.971L122.758 74.6394H121.749L120.777 72.4404H116.253L115.264 74.6394H114.303L118.092 66.271ZM120.401 71.6003L118.514 67.3639L116.615 71.6003H120.401Z" fill="white"/>
<path d="M31.0473 9.57959H29.9434C29.7551 9.57959 29.6025 9.73219 29.6025 9.92044V15.8215C29.6025 16.0097 29.7551 16.1623 29.9434 16.1623H31.0473C31.2355 16.1623 31.3881 16.0097 31.3881 15.8215V9.92044C31.3881 9.73219 31.2355 9.57959 31.0473 9.57959Z" fill="white"/>
<path d="M33.9184 9.57959H32.8145C32.6262 9.57959 32.4736 9.73219 32.4736 9.92044V15.8215C32.4736 16.0097 32.6262 16.1623 32.8145 16.1623H33.9184C34.1066 16.1623 34.2592 16.0097 34.2592 15.8215V9.92044C34.2592 9.73219 34.1066 9.57959 33.9184 9.57959Z" fill="white"/>
<path d="M28.1586 9.57959H27.0547C26.8665 9.57959 26.7139 9.73219 26.7139 9.92044V15.8215C26.7139 16.0097 26.8665 16.1623 27.0547 16.1623H28.1586C28.3469 16.1623 28.4995 16.0097 28.4995 15.8215V9.92044C28.4995 9.73219 28.3469 9.57959 28.1586 9.57959Z" fill="white"/>
<path d="M36.1577 8.2832H24.8053C24.7009 8.2832 24.6162 8.36787 24.6162 8.47232V8.90772C24.6162 9.01217 24.7009 9.09684 24.8053 9.09684H36.1577C36.2622 9.09684 36.3469 9.01217 36.3469 8.90772V8.47232C36.3469 8.36787 36.2622 8.2832 36.1577 8.2832Z" fill="white"/>
<path d="M41.3101 19.5893C41.6807 19.8631 42.1051 20.1896 42.5734 20.5789C43.5686 21.4146 44.5105 22.3117 45.3937 23.265C47.7011 25.7685 49.6092 28.6126 51.0507 31.6971C51.7537 33.1244 52.3569 34.5987 52.856 36.1094C53.3947 37.6226 53.8286 39.171 54.1546 40.7438C54.7043 43.4816 54.9792 46.5514 54.9792 46.5514H59.1815L59.1738 46.4833L59.3376 46.5448V46.5152C59.1148 40.4638 57.1461 34.6061 53.669 29.6485C50.1919 24.6908 45.3548 20.8449 39.7411 18.5745L39.6982 18.5569C40.0172 18.7298 40.3269 18.9192 40.6262 19.1242C40.834 19.2595 41.0671 19.4211 41.3101 19.5893Z" fill="white"/>
<path d="M52.142 46.4656C52.1145 46.1512 52.0684 45.8444 52.0321 45.5322C51.7426 41.9861 50.9331 38.5018 49.6297 35.1913C49.2153 34.1584 48.7379 33.152 48.2003 32.1776C48.0485 31.906 47.8891 31.6487 47.733 31.387C45.1059 26.187 40.8213 22.0103 35.5559 19.5168L35.5361 19.5046L35.5714 19.5508C36.5821 20.5694 37.4828 21.6916 38.2585 22.8988C41.6273 28.2099 43.6788 34.2488 44.2421 40.5129C44.4209 42.0571 44.5095 43.6104 44.5071 45.1649C44.5214 45.5784 44.5367 46.2524 44.5422 46.4844L44.5257 46.569H45.3998L52.1167 46.5492V46.5437H52.153L52.142 46.4656Z" fill="white"/>
<path d="M34.8874 7.68554C34.9011 6.51551 34.4575 5.38633 33.651 4.53855C32.8445 3.69078 31.7389 3.19142 30.5696 3.14679V2.4046H31.7626V2.27595V1.83616C31.7623 1.82556 31.7578 1.8155 31.7502 1.80811C31.7427 1.80071 31.7325 1.79659 31.7219 1.7966H31.5449C31.5343 1.79659 31.5241 1.80071 31.5165 1.80811C31.5089 1.8155 31.5044 1.82556 31.5042 1.83616V2.26938H30.5663V0.571732H30.5916C30.605 0.571732 30.6179 0.566386 30.6274 0.556901C30.6369 0.547416 30.6422 0.534579 30.6422 0.521165V0.0516736C30.6422 0.0381565 30.6369 0.0251624 30.6275 0.0155021C30.618 0.0058418 30.6051 0.0002876 30.5916 1.44087e-09H30.3882C30.3815 -1.5903e-06 30.3748 0.00131563 30.3686 0.00392585C30.3623 0.00653608 30.3568 0.0103865 30.352 0.0152001C30.3473 0.0200137 30.3436 0.0257134 30.3412 0.0319772C30.3387 0.038241 30.3375 0.0449398 30.3376 0.0516736V0.521165C30.3375 0.527848 30.3387 0.53449 30.3412 0.540694C30.3437 0.546898 30.3474 0.552509 30.3521 0.557236C30.3568 0.561963 30.3625 0.565686 30.3687 0.568175C30.3749 0.570663 30.3815 0.571882 30.3882 0.571732H30.4179V2.26938H29.4679V1.83616C29.4676 1.82556 29.4632 1.8155 29.4556 1.80811C29.448 1.80071 29.4378 1.79659 29.4272 1.7966H29.2502C29.2449 1.79645 29.2396 1.79736 29.2347 1.79928C29.2298 1.80121 29.2253 1.80408 29.2215 1.80777C29.2177 1.81146 29.2147 1.81588 29.2126 1.82076C29.2105 1.82563 29.2095 1.83087 29.2095 1.83616V2.27595V2.40571H30.4189V3.14897C29.2469 3.19364 28.1388 3.69514 27.3318 4.5462C26.5247 5.39727 26.0826 6.53035 26.1001 7.70313V7.72403H34.8852L34.8874 7.68554Z" fill="white"/>
<path d="M36.1577 16.855H24.8053C24.7009 16.855 24.6162 16.9397 24.6162 17.0441V17.4795C24.6162 17.5839 24.7009 17.6686 24.8053 17.6686H36.1577C36.2622 17.6686 36.3469 17.5839 36.3469 17.4795V17.0441C36.3469 16.9397 36.2622 16.855 36.1577 16.855Z" fill="white"/>
<path d="M32.1004 20.1407L31.9795 20.0374V46.5465L41.7035 46.5805C41.7035 46.5805 41.7035 46.3056 41.7035 46.1682C41.7035 34.8609 37.8091 25.0533 32.1004 20.1407Z" fill="white"/>
<path d="M54.7698 50.6084H52.2002C52.012 50.6084 51.8594 50.761 51.8594 50.9492V53.5166C51.8594 53.7048 52.012 53.8574 52.2002 53.8574H54.7698C54.958 53.8574 55.1106 53.7048 55.1106 53.5166V50.9492C55.1106 50.761 54.958 50.6084 54.7698 50.6084Z" fill="white"/>
<path d="M19.1937 50.6052H16.6231C16.4348 50.6052 16.2822 50.7578 16.2822 50.9461V53.5167C16.2822 53.705 16.4348 53.8576 16.6231 53.8576H19.1937C19.382 53.8576 19.5346 53.705 19.5346 53.5167V50.9461C19.5346 50.7578 19.382 50.6052 19.1937 50.6052Z" fill="white"/>
<path d="M44.3821 50.6084H41.8125C41.6243 50.6084 41.4717 50.761 41.4717 50.9492V53.5166C41.4717 53.7048 41.6243 53.8574 41.8125 53.8574H44.3821C44.5703 53.8574 44.7229 53.7048 44.7229 53.5166V50.9492C44.7229 50.761 44.5703 50.6084 44.3821 50.6084Z" fill="white"/>
<path d="M31.7875 50.6052H29.2168C29.0286 50.6052 28.876 50.7578 28.876 50.9461V53.5167C28.876 53.705 29.0286 53.8576 29.2168 53.8576H31.7875C31.9757 53.8576 32.1283 53.705 32.1283 53.5167V50.9461C32.1283 50.7578 31.9757 50.6052 31.7875 50.6052Z" fill="white"/>
<path d="M60.8316 48.7158H60.6842H55.1152V47.7483C55.1152 47.6727 55.0852 47.6003 55.0318 47.5469C54.9784 47.4935 54.906 47.4634 54.8304 47.4634H52.1499C52.0743 47.4634 52.0019 47.4935 51.9485 47.5469C51.8951 47.6003 51.865 47.6727 51.865 47.7483V48.7158H44.7293V47.7483C44.7293 47.7108 44.7219 47.6736 44.7075 47.639C44.6931 47.6044 44.672 47.5729 44.6454 47.5465C44.6189 47.52 44.5874 47.4991 44.5527 47.4849C44.518 47.4706 44.4809 47.4633 44.4434 47.4634H41.7628C41.6873 47.4634 41.6149 47.4935 41.5615 47.5469C41.5081 47.6003 41.4781 47.6727 41.4781 47.7483V48.7158H32.1322V47.7428C32.1322 47.6672 32.1022 47.5948 32.0488 47.5414C31.9954 47.488 31.923 47.458 31.8474 47.458H29.1658C29.0903 47.458 29.0178 47.488 28.9644 47.5414C28.911 47.5948 28.881 47.6672 28.881 47.7428V48.7158H19.5352V47.7428C19.5352 47.6672 19.5051 47.5948 19.4517 47.5414C19.3983 47.488 19.3259 47.458 19.2504 47.458H16.5687C16.4932 47.458 16.4208 47.488 16.3674 47.5414C16.314 47.5948 16.284 47.6672 16.284 47.7428V48.7158H9.14595V47.7428C9.14595 47.7053 9.13852 47.6681 9.12414 47.6335C9.10976 47.5989 9.08869 47.5675 9.06213 47.541C9.03557 47.5146 9.00406 47.4936 8.96939 47.4794C8.93471 47.4651 8.89756 47.4579 8.86007 47.458H6.17948C6.10385 47.458 6.03127 47.4879 5.97769 47.5413C5.92411 47.5947 5.89389 47.6671 5.8936 47.7428V48.7158H0.349895H0.195948C0.171113 48.7158 0.146549 48.7207 0.123605 48.7302C0.10066 48.7397 0.0797615 48.7536 0.0622005 48.7712C0.0446395 48.7888 0.0307011 48.8096 0.0211972 48.8325C0.0116932 48.8555 0.00683594 48.8801 0.00683594 48.9049V49.4151C0.00683594 49.4653 0.0267345 49.5134 0.0622005 49.5488C0.0976665 49.5843 0.145791 49.6042 0.195948 49.6042H60.8381C60.8884 49.6042 60.9366 49.5843 60.9723 49.5489C61.0079 49.5135 61.0281 49.4654 61.0284 49.4151V48.9049C61.0283 48.8795 61.023 48.8543 61.013 48.8309C61.0029 48.8075 60.9883 48.7864 60.9699 48.7688C60.9516 48.7511 60.9299 48.7373 60.9061 48.7282C60.8823 48.7191 60.857 48.7149 60.8316 48.7158Z" fill="white"/>
<path d="M8.80407 50.6052H6.23343C6.04518 50.6052 5.89258 50.7578 5.89258 50.9461V53.5167C5.89258 53.705 6.04518 53.8576 6.23343 53.8576H8.80407C8.99232 53.8576 9.14492 53.705 9.14492 53.5167V50.9461C9.14492 50.7578 8.99232 50.6052 8.80407 50.6052Z" fill="white"/>
<path d="M29.0452 46.561V20.0442L28.9242 20.1464C23.2156 25.0601 19.3223 34.8798 19.3223 46.1816C19.3223 46.3202 19.3223 46.594 19.3223 46.594L29.0452 46.561Z" fill="white"/>
<path d="M1.84207 46.5622H3.41986L4.90087 46.5677V46.5622H6.04326C6.04326 46.5622 6.32034 43.4913 6.86789 40.7513C7.55078 37.6257 8.59195 34.5893 9.97073 31.7023C11.4122 28.6172 13.3206 25.7728 15.6288 23.2691C16.5112 22.3152 17.4528 21.4177 18.4479 20.5819C18.9152 20.196 19.3396 19.8705 19.7101 19.5924C19.9542 19.423 20.1895 19.2625 20.3962 19.1196C20.6955 18.9145 21.0053 18.7252 21.3242 18.5522L21.2813 18.5698C15.6674 20.843 10.8309 24.6916 7.35504 29.6515C3.87912 34.6115 1.91218 40.4711 1.69141 46.5237V46.5556H1.84757L1.84207 46.5622Z" fill="white"/>
<path d="M22.7634 22.9103C23.5383 21.7025 24.4387 20.5799 25.4495 19.5612L25.4846 19.5139L25.4659 19.526C20.1992 22.0207 15.9139 26.1989 13.2867 31.4007C13.1306 31.6624 12.9712 31.9196 12.8194 32.1912C12.2841 33.166 11.8086 34.1724 11.3955 35.205C10.089 38.5168 9.27734 42.003 8.98652 45.5513C8.95134 45.8636 8.90518 46.1714 8.8766 46.4859L8.87109 46.5585H8.90626L15.4132 46.5783H16.4962L16.4797 46.4925C16.4852 46.2649 16.5005 45.5898 16.5148 45.1731C16.5133 43.6183 16.6018 42.0646 16.7798 40.52C17.3439 34.2574 19.3953 28.2201 22.7634 22.9103Z" fill="white"/>
<path d="M60.6796 54.6233H0.340847C0.152602 54.6233 0 54.7759 0 54.9641V56.3902C0 56.5784 0.152602 56.731 0.340847 56.731H60.6796C60.8678 56.731 61.0204 56.5784 61.0204 56.3902V54.9641C61.0204 54.7759 60.8678 54.6233 60.6796 54.6233Z" fill="white"/>
<path d="M60.7348 107H0.0419922V103.702H60.7348" fill="white"/>
</svg>
