<svg width="292" height="103" viewBox="0 0 292 103" fill="none" xmlns="http://www.w3.org/2000/svg">
<path d="M12.1377 76.6551C8.39132 74.5938 5.30593 71.5156 3.2383 67.7766C1.0257 63.714 -0.0885322 59.1457 0.0056264 54.5221C-0.0908053 49.8867 1.05387 45.3097 3.32127 41.2637C5.45203 37.5135 8.59432 34.4357 12.3906 32.3811C16.3528 30.3201 20.7545 29.2439 25.2222 29.2439C29.6898 29.2439 34.0915 30.3201 38.0537 32.3811C41.8569 34.4315 45.0063 37.508 47.1428 41.2596C49.4123 45.3036 50.5596 49.8793 50.4663 54.5141C50.5608 59.1591 49.3845 63.7419 47.0638 67.7687C44.8747 71.5211 41.6895 74.5965 37.86 76.6551C33.8751 78.7818 29.4162 79.8677 24.8981 79.8118C20.4433 79.8748 16.0478 78.7875 12.1377 76.6551ZM31.2012 67.3701C33.2274 66.2305 34.8758 64.5244 35.9435 62.4615C37.1866 59.9994 37.7937 57.2662 37.7099 54.5103C37.8381 52.5669 37.5793 50.6173 36.9485 48.7743C36.3177 46.9314 35.3274 45.2317 34.0347 43.7732C32.8803 42.5595 31.4855 41.599 29.939 40.953C28.3926 40.3069 26.7283 39.9894 25.0522 40.0207C23.388 39.9849 21.7351 40.301 20.202 40.9484C18.6688 41.5958 17.2902 42.5599 16.1567 43.7771C13.6036 46.7528 12.3185 50.6083 12.5763 54.5182C12.3172 58.4118 13.5697 62.2553 16.0737 65.2511C17.1854 66.4723 18.5477 67.4397 20.0678 68.0873C21.588 68.7349 23.2302 69.0475 24.8823 69.0037C27.0941 69.0093 29.2701 68.4467 31.2012 67.3701Z" fill="white"/>
<path d="M88.5602 31.2049C91.1726 32.5096 93.4228 34.4367 95.1121 36.816V29.2516H107.592V77.4793C107.662 82.2372 106.728 86.9565 104.85 91.3297C103.009 94.9101 100.146 97.8643 96.6218 99.8175C92.5515 102.015 87.9732 103.104 83.3477 102.974C77.2645 103.232 71.2597 101.529 66.2206 98.1166C64.065 96.5955 62.2701 94.6204 60.9624 92.3309C59.6548 90.0413 58.8664 87.4932 58.6528 84.8662H70.9548C71.6144 87.1217 73.1208 89.0358 75.1597 90.209C77.5331 91.588 80.2476 92.2718 82.9921 92.182C84.5939 92.248 86.1927 91.9964 87.6965 91.4417C89.2003 90.887 90.5791 90.0401 91.7532 88.9501C94.1802 85.6386 95.3686 81.5828 95.1121 77.4872V71.5682C93.3973 73.9737 91.1392 75.9419 88.5206 77.3136C85.5688 78.8826 82.2651 79.6744 78.9216 79.6141C74.9215 79.6573 70.9916 78.5624 67.5918 76.4574C64.1129 74.273 61.3086 71.1682 59.4906 67.4881C57.4507 63.3562 56.4329 58.7961 56.5228 54.1902C56.4336 49.6271 57.449 45.1097 59.4827 41.0224C61.286 37.3815 64.0765 34.3192 67.5366 32.1834C70.9624 30.1112 74.9009 29.0383 78.906 29.0859C82.2485 28.9999 85.5619 29.7271 88.5602 31.2049ZM93.3458 46.594C92.2483 44.5295 90.5912 42.8149 88.5641 41.6459C86.6021 40.5084 84.3715 39.9146 82.1028 39.9256C79.8672 39.9082 77.6677 40.4885 75.7325 41.6064C73.7313 42.7763 72.0907 44.473 70.9903 46.5112C69.7337 48.8594 69.1088 51.493 69.1765 54.1546C69.1181 56.8446 69.7436 59.5056 70.9944 61.8888C72.0965 63.984 73.7497 65.7397 75.7762 66.9672C77.6812 68.1248 79.869 68.7352 82.099 68.7311C84.3677 68.7386 86.5977 68.1434 88.5602 67.0067C90.5852 65.8363 92.2405 64.1217 93.3379 62.0583C94.5018 59.6464 95.1063 57.0036 95.1063 54.3263C95.1063 51.649 94.5018 49.0059 93.3379 46.594H93.3458Z" fill="white"/>
<path d="M135.614 40.1661V63.842C135.552 64.4874 135.625 65.1389 135.829 65.7545C136.033 66.3701 136.364 66.9363 136.8 67.417C137.96 68.2669 139.394 68.6601 140.827 68.5218H146.592V78.9472H138.807C128.361 78.9472 123.138 73.8818 123.138 63.7512V40.1582H116.389V29.4134H123.138V17.0823H135.618V29.4134H146.592V40.1582L135.614 40.1661Z" fill="white"/>
<path d="M170.339 29.4095V78.9512H157.946V29.4136L170.339 29.4095ZM170.339 23.2223V10.8359H157.938V23.2184L170.339 23.2223Z" fill="white"/>
<path d="M183.075 41.1687C185.132 37.4438 188.206 34.3786 191.939 32.3298C195.919 30.18 200.388 29.0927 204.913 29.1731C210.463 28.9548 215.932 30.5507 220.491 33.7187C224.676 36.8633 227.608 41.388 228.766 46.488H214.958C214.301 44.4651 213.001 42.7114 211.255 41.4924C209.348 40.2376 207.097 39.606 204.814 39.6852C203.166 39.6115 201.523 39.9207 200.014 40.5883C198.506 41.2559 197.173 42.2635 196.12 43.5324C194.033 46.7745 192.923 50.5475 192.923 54.4016C192.923 58.2558 194.033 62.0288 196.12 65.2709C197.174 66.5371 198.508 67.5426 200.016 68.2087C201.524 68.8748 203.166 69.1834 204.814 69.1104C207.017 69.3165 209.225 68.7634 211.07 67.543C212.915 66.3226 214.285 64.5084 214.955 62.4022H228.754C227.524 67.4386 224.593 71.8979 220.455 75.0294C215.941 78.268 210.476 79.9169 204.921 79.7171C200.399 79.8021 195.931 78.723 191.947 76.584C188.214 74.5366 185.14 71.4727 183.083 67.7489C180.981 63.6299 179.884 59.0723 179.884 54.4491C179.884 49.8258 180.981 45.2683 183.083 41.1492L183.075 41.1687Z" fill="white"/>
<path d="M256.003 0H268.846L262.425 11.1079L256.003 22.212L249.585 11.1079L243.163 0H256.003Z" fill="#0064CE"/>
<path d="M291.988 40.5641L256.003 22.2114L265.831 40.568H292L291.988 40.5641Z" fill="#6BDB00"/>
<path d="M268.838 0L256.003 22.212L292 40.5686L268.838 0Z" fill="#00ADCA"/>
<path d="M256.003 81.1339H268.846L262.425 70.0259L256.003 58.9219L249.585 70.0259L243.163 81.1339H256.003Z" fill="#ED2024"/>
<path d="M291.988 40.5647L256.003 58.9213L265.831 40.5647H292H291.988Z" fill="#FFBA00"/>
<path d="M268.838 81.1333L256.003 58.9213L292 40.5647L268.838 81.1333Z" fill="#FF6900"/>
</svg>
